<svg xmlns="http://www.w3.org/2000/svg" xmlns:xlink="http://www.w3.org/1999/xlink" xml:space="preserve" version="1.1" style="shape-rendering:geometricPrecision;text-rendering:geometricPrecision;image-rendering:optimizeQuality;" viewBox="0 0 100 125" x="0px" y="0px" fill-rule="evenodd" clip-rule="evenodd"><defs><style type="text/css">
   
    .fil0 {fill:black;fill-rule:nonzero}
   
  </style></defs><g><path class="fil0" d="M43.3 28.88c0,-1.49 1.21,-2.7 2.7,-2.7 1.49,0 2.7,1.21 2.7,2.7l0 6.75c0,1.87 0.75,3.56 1.97,4.77 1.23,1.22 2.92,1.98 4.78,1.98l7.32 0c1.49,0 2.7,1.21 2.7,2.7 0,0.64 -0.23,1.23 -0.6,1.69 -0.53,0.8 -0.94,1.67 -1.23,2.6 -0.29,0.94 -0.44,1.99 -0.44,3.11 0,2.9 1.17,5.53 3.07,7.42 1.9,1.9 4.53,3.08 7.43,3.08 2.66,0 5.13,-1.32 7.01,-3.21 2.15,-2.14 3.49,-4.93 3.49,-7.29 0,-2.4 -0.38,-4 -1.05,-5.2 -0.67,-1.18 -1.74,-2.14 -3.07,-3.15 -1.08,-0.83 -1.36,-2.32 -0.71,-3.47 0.68,-1.44 0.98,-2.85 0.98,-4.18 0,-1.66 -0.47,-3.16 -1.23,-4.39 -0.74,-1.21 -1.76,-2.15 -2.88,-2.7 -0.67,-0.33 -1.39,-0.51 -2.1,-0.51 -1.49,0 -2.7,-1.21 -2.7,-2.7 0,-1.3 -0.36,-2.64 -0.99,-3.93 -1.09,-2.2 -2.96,-4.24 -5.32,-5.74 -2.34,-1.5 -5.17,-2.44 -8.15,-2.44 -2.04,0 -4.15,0.44 -6.24,1.44 -0.39,0.23 -0.85,0.37 -1.35,0.37 -1.4,0 -2.74,0.09 -4,0.27 -1.33,0.19 -2.58,0.47 -3.75,0.83 -0.7,0.21 -1.38,0.45 -2.04,0.72l-0.06 0.03 -0.06 0.03c-4.34,1.8 -7.87,4.81 -10.43,8.63 -3.1,4.64 -4.79,10.48 -4.79,16.82l0 0.72 -6.59 11.04c-0.36,0.6 -0.52,1.18 -0.52,1.7 0,0.45 0.12,0.87 0.33,1.22 0.22,0.37 0.53,0.67 0.88,0.88 0.32,0.19 0.69,0.3 1.06,0.3l4.84 0 0 0.01 17.21 -0.01 5.92 -8.6c0.85,-1.22 2.52,-1.53 3.75,-0.69 1.22,0.85 1.53,2.52 0.68,3.74l-6.59 9.59c-0.47,0.81 -1.35,1.36 -2.35,1.36l-18.62 0 0 1.23 0 1.99 3.75 0c0.74,0 1.35,0.61 1.35,1.35 0,0.75 -0.61,1.35 -1.35,1.35l-3.74 0 0.01 3.48c0,1.48 -1.2,2.68 -2.68,2.69 -1.59,0 -3.05,0.67 -4.1,1.73 -1.05,1.05 -1.7,2.51 -1.7,4.11 0,1.6 0.65,3.06 1.71,4.12 1.06,1.06 2.52,1.71 4.12,1.71 0,0.01 13.82,0.16 16.56,0.14l0.21 -0.01 0.36 0c4.14,-0.05 7.87,-1.46 10.56,-3.87 2.64,-2.36 4.3,-5.71 4.39,-9.69 -0.11,-3.02 -0.01,-6.22 -0.01,-9.26 0,-1.49 1.21,-2.7 2.7,-2.7 1.49,0 2.7,1.21 2.7,2.7 0,3.04 0.14,6.33 -0.01,9.34 -0.11,5.5 -2.4,10.15 -6.03,13.48l14.74 0 0 -21.11c-2.02,-0.81 -3.83,-2.02 -5.34,-3.53 -2.88,-2.89 -4.66,-6.86 -4.66,-11.24 0,-1.63 0.24,-3.2 0.7,-4.7l-3.05 0c-3.35,0 -6.39,-1.36 -8.59,-3.56 -2.2,-2.21 -3.56,-5.25 -3.56,-8.59l0 -6.75zm5.49 -18.4c2.75,-1.25 5.52,-1.81 8.19,-1.81 4.04,0 7.86,1.28 11.04,3.31 3.19,2.02 5.75,4.83 7.26,7.89 0.63,1.28 1.08,2.6 1.33,3.94 0.68,0.18 1.35,0.43 1.99,0.75 2.02,0.99 3.82,2.64 5.1,4.7 1.27,2.06 2.05,4.54 2.05,7.22 0,1.5 -0.25,3.08 -0.79,4.68 1.12,1 2.09,2.1 2.87,3.49 1.13,2 1.77,4.44 1.77,7.83 0,3.75 -1.95,7.99 -5.07,11.11 -2.81,2.81 -6.61,4.79 -10.83,4.79l-0.5 -0.01 0 25.39 -34.38 0 -0.26 0 -0.02 0 -0.14 0c-0.09,0 -0.18,-0.01 -0.26,-0.02l-16.51 -0.12 0 0.01c-3.09,0 -5.9,-1.26 -7.94,-3.29 -2.03,-2.04 -3.29,-4.85 -3.29,-7.94 0,-3.08 1.25,-5.87 3.28,-7.91 1.41,-1.42 3.21,-2.47 5.21,-2.97l0 -1.88c-0.03,-0.13 -0.03,-0.27 -0.03,-0.41l0 -4.78c-1.16,-0.09 -2.28,-0.47 -3.27,-1.06 -1.11,-0.66 -2.07,-1.61 -2.75,-2.76 -0.68,-1.15 -1.09,-2.51 -1.09,-3.96 0,-1.43 0.4,-2.95 1.3,-4.46l5.81 -9.74c0.13,-7.11 2.14,-13.73 5.72,-19.08 3.12,-4.66 7.44,-8.34 12.75,-10.57 1.11,-0.6 2.23,-1.27 3.13,-2.07 0.81,-0.72 1.49,-1.58 1.86,-2.67 0.48,-1.41 2.01,-2.17 3.42,-1.69 1.41,0.48 2.16,2.01 1.68,3.42 -0.08,0.25 -0.18,0.5 -0.28,0.74 0.55,-0.04 1.1,-0.06 1.65,-0.07zm0.26 7.89c1.49,0.04 2.66,1.27 2.63,2.75 -0.04,1.49 -1.27,2.66 -2.76,2.63 -1.64,-0.04 -3.36,-0.01 -4.84,0.49 -1.29,0.43 -2.5,1.29 -3.44,2.93 -0.74,1.28 -2.38,1.73 -3.67,0.99 -1.29,-0.74 -1.73,-2.39 -0.99,-3.67 1.71,-2.96 3.96,-4.54 6.39,-5.36 2.26,-0.76 4.55,-0.81 6.68,-0.76z"/></g><text x="0" y="115" fill="#000000" font-size="5px" font-weight="bold" font-family="'Helvetica Neue', Helvetica, Arial-Unicode, Arial, Sans-serif">Created by Hadi</text><text x="0" y="120" fill="#000000" font-size="5px" font-weight="bold" font-family="'Helvetica Neue', Helvetica, Arial-Unicode, Arial, Sans-serif">from the Noun Project</text></svg>